# xmcd
#
# Track frame offsets:
#	150
#	12329
#	21600
#	34850
#	54192
#	70282
#	82338
#	94037
#	106003
#	118178
#	131528
#	141734
#	163077
#	181118
#	200134
#	211827
#	223607
#	235737
#	246839
#	259963
#	273788
#
# Disc length: 3791
#
# Revision: 2
# Processed by: cddbd v1.5.1PL0 Copyright (c) Steve Scherf et al.
# Submitted via: CDex 1.51
# Normalized: r0:TDELIM( - ),TSWAP
#
DISCID=3b0ecd15
DTITLE=Country Moods and Memories - Disc 1
DYEAR=1900
DGENRE=Country
TTITLE0=Eddie Arnold - Make The World Go Away
TTITLE1=Charlie Pride - Kiss An Angel Good Mornin'
TTITLE2=Dolly Parton - I Will Always Love You
TTITLE3=Vince Gill - When I Call Your Name
TTITLE4=Randy Travis - Forever And Ever, Amen
TTITLE5=Crystal Gayle - Don't It Make My Brown Eyes Blue
TTITLE6=Freddy Fender - Before The Next Teardrop Falls
TTITLE7=Johnny Cash - Ring Of Fire
TTITLE8=Tammy Wynette - Stand By Your Man
TTITLE9=Waylon Jennings - Amanda
TTITLE10=The Statler Brothers - Do You Know You Are My Sunshine
TTITLE11=Gary Morris - The Wind Beneath My Wings
TTITLE12=Linda Ronstadt - Crazy
TTITLE13=Glen Campbell - Still Within The Sound Of My Voice
TTITLE14=Sammi Smith - Help Me Make It Through The Night
TTITLE15=Don Gibson - I Can't Stop Loving You
TTITLE16=Marie Osmond - Paper Roses
TTITLE17=Conway Twitty - Hello Darlin'
TTITLE18=Hank Williams, Sr. - Jambalaya (On The Bayou)
TTITLE19=Patti Page - The Tennessee Waltz
TTITLE20=Jimmie Rodgers - Kisses Sweeter Than Wine
EXTD=
EXTT0=
EXTT1=
EXTT2=
EXTT3=
EXTT4=
EXTT5=
EXTT6=
EXTT7=
EXTT8=
EXTT9=
EXTT10=
EXTT11=
EXTT12=
EXTT13=
EXTT14=
EXTT15=
EXTT16=
EXTT17=
EXTT18=
EXTT19=
EXTT20=
PLAYORDER=
